<?xml version="1.0" encoding="UTF-8" standalone="no"?>
<svg
   xmlns:dc="http://purl.org/dc/elements/1.1/"
   xmlns:cc="http://creativecommons.org/ns#"
   xmlns:rdf="http://www.w3.org/1999/02/22-rdf-syntax-ns#"
   xmlns:svg="http://www.w3.org/2000/svg"
   xmlns="http://www.w3.org/2000/svg"
   xmlns:sodipodi="http://sodipodi.sourceforge.net/DTD/sodipodi-0.dtd"
   xmlns:inkscape="http://www.inkscape.org/namespaces/inkscape"
   width="24mm"
   height="37mm"
   viewBox="0 0 24 37"
   version="1.1"
   id="svg8"
   inkscape:version="1.0.1 (3bc2e813f5, 2020-09-07)"
   sodipodi:docname="favicon.svg">
  <defs
     id="defs2" />
  <sodipodi:namedview
     id="base"
     pagecolor="#ffffff"
     bordercolor="#666666"
     borderopacity="1.0"
     inkscape:pageopacity="0.0"
     inkscape:pageshadow="2"
     inkscape:zoom="5.6"
     inkscape:cx="55.085883"
     inkscape:cy="68.189869"
     inkscape:document-units="mm"
     inkscape:current-layer="layer1"
     inkscape:document-rotation="0"
     showgrid="false"
     inkscape:window-width="1920"
     inkscape:window-height="1009"
     inkscape:window-x="1912"
     inkscape:window-y="-8"
     inkscape:window-maximized="1" />
  <metadata
     id="metadata5">
    <rdf:RDF>
      <cc:Work
         rdf:about="">
        <dc:format>image/svg+xml</dc:format>
        <dc:type
           rdf:resource="http://purl.org/dc/dcmitype/StillImage" />
        <dc:title />
      </cc:Work>
    </rdf:RDF>
  </metadata>
  <g
     inkscape:label="Layer 1"
     inkscape:groupmode="layer"
     id="layer1">
    <g
       id="g837"
       transform="matrix(0.02986949,0,0,0.02986949,-6.2313456,0.25040772)"
       style="fill:#973688;fill-opacity:1">
      <path
         d="m 319.18,143.4 h -37.742 l -62.254,996.25 139.63,60.348 z"
         id="path833"
         style="fill:#973688;fill-opacity:1" />
      <path
         d="M 916.69,196.25 785.16,179.809 785.156,89.813 738.14,29.934 534.98,0.004 487.929,44.906 v 97.738 l -8.1719,-1.0195 v -102.38 l 27.742,-26.461 -14.039,-2.0742 -47.039,44.902 v 81.852 l -118.43,-14.809 39.625,1077.4 613.2,-94.332 z m -183.61,-102 -1.5,-1.9805 -190.12,-27.297 v 15.336 l 158.95,22.812 1.3438,66.254 -166.78,-20.844 v -93.641 l 204.89,28.727 1.8945,90.758 -7.1055,-0.88672 z"
         id="path835"
         style="fill:#973688;fill-opacity:1" />
    </g>
  </g>
</svg>
