<?xml version="1.0" encoding="UTF-8" standalone="no"?>
<svg
   xmlns:dc="http://purl.org/dc/elements/1.1/"
   xmlns:cc="http://creativecommons.org/ns#"
   xmlns:rdf="http://www.w3.org/1999/02/22-rdf-syntax-ns#"
   xmlns:svg="http://www.w3.org/2000/svg"
   xmlns="http://www.w3.org/2000/svg"
   xmlns:sodipodi="http://sodipodi.sourceforge.net/DTD/sodipodi-0.dtd"
   xmlns:inkscape="http://www.inkscape.org/namespaces/inkscape"
   width="123mm"
   height="37mm"
   viewBox="0 0 123 37"
   version="1.1"
   id="svg8"
   inkscape:version="1.0.1 (3bc2e813f5, 2020-09-07)"
   sodipodi:docname="urbanopolis.svg">
  <defs
     id="defs2" />
  <sodipodi:namedview
     id="base"
     pagecolor="#ffffff"
     bordercolor="#666666"
     borderopacity="1.0"
     inkscape:pageopacity="0.0"
     inkscape:pageshadow="2"
     inkscape:zoom="1.979899"
     inkscape:cx="180.70233"
     inkscape:cy="101.80661"
     inkscape:document-units="mm"
     inkscape:current-layer="layer1"
     inkscape:document-rotation="0"
     showgrid="false"
     inkscape:window-width="1920"
     inkscape:window-height="1009"
     inkscape:window-x="1912"
     inkscape:window-y="-8"
     inkscape:window-maximized="1" />
  <metadata
     id="metadata5">
    <rdf:RDF>
      <cc:Work
         rdf:about="">
        <dc:format>image/svg+xml</dc:format>
        <dc:type
           rdf:resource="http://purl.org/dc/dcmitype/StillImage" />
        <dc:title />
      </cc:Work>
    </rdf:RDF>
  </metadata>
  <g
     inkscape:label="Layer 1"
     inkscape:groupmode="layer"
     id="layer1">
    <g
       id="g837"
       transform="matrix(0.02986949,0,0,0.02986949,-6.2313456,0.25040772)"
       style="fill:#973688;fill-opacity:1">
      <path
         d="m 319.18,143.4 h -37.742 l -62.254,996.25 139.63,60.348 z"
         id="path833"
         style="fill:#973688;fill-opacity:1" />
      <path
         d="M 916.69,196.25 785.16,179.809 785.156,89.813 738.14,29.934 534.98,0.004 487.929,44.906 v 97.738 l -8.1719,-1.0195 v -102.38 l 27.742,-26.461 -14.039,-2.0742 -47.039,44.902 v 81.852 l -118.43,-14.809 39.625,1077.4 613.2,-94.332 z m -183.61,-102 -1.5,-1.9805 -190.12,-27.297 v 15.336 l 158.95,22.812 1.3438,66.254 -166.78,-20.844 v -93.641 l 204.89,28.727 1.8945,90.758 -7.1055,-0.88672 z"
         id="path835"
         style="fill:#973688;fill-opacity:1" />
    </g>
    <g
       aria-label="urbanopolis"
       id="text852"
       style="font-size:10.5833px;line-height:1.25;font-family:Arial;-inkscape-font-specification:Arial;word-spacing:0px;fill:#973688;fill-opacity:1;stroke-width:0.264583">
      <path
         d="m 26.550393,15.914951 q 0,-1.145825 -0.671691,-1.639715 h 2.370672 q -0.67169,0.49389 -0.67169,1.639715 v 4.958656 q 0,0.928513 0.49389,1.521181 0.533401,0.651935 1.540937,0.651935 0.908757,0 1.639715,-0.691446 0.730957,-0.711202 0.730957,-1.659471 v -4.780855 q 0,-1.145825 -0.671691,-1.639715 h 2.370672 q -0.67169,0.49389 -0.67169,1.639715 v 6.499593 q 0,1.086558 0.67169,1.639714 h -1.698981 v -1.244602 q -0.889002,1.363136 -2.449695,1.363136 -1.461914,0 -2.252138,-0.908758 -0.730957,-0.829735 -0.730957,-2.15336 z"
         style="font-style:normal;font-variant:normal;font-weight:normal;font-stretch:normal;font-size:19.7556px;font-family:Monopol;-inkscape-font-specification:Monopol;fill:#973688;fill-opacity:1;stroke-width:0.264583"
         id="path853" />
      <path
         d="m 42.335079,17.060776 q 0,-1.16558 -0.474134,-1.916293 -0.651935,-0.98778 -2.015072,-0.98778 -1.698981,0 -2.449694,1.363136 v -1.244603 h -1.698982 q 0.671691,0.49389 0.671691,1.639715 v 6.499593 q 0,1.086558 -0.671691,1.639714 h 2.370672 q -0.67169,-0.553156 -0.67169,-1.639714 v -5.215479 q 0,-0.849491 0.750713,-1.402647 0.67169,-0.513646 1.619959,-0.513646 1.718737,0 1.718737,2.311405 0,0.592668 -0.1778,0.948269 -0.07902,0.118534 -0.612424,0.80998 1.007536,-0.513646 1.323625,-0.948269 0.31609,-0.454379 0.31609,-1.343381 z"
         style="font-style:normal;font-variant:normal;font-weight:normal;font-stretch:normal;font-size:19.7556px;font-family:Monopol;-inkscape-font-specification:Monopol;fill:#973688;fill-opacity:1;stroke-width:0.264583"
         id="path855" />
      <path
         d="m 52.390668,19.352426 q 0,1.97556 -1.047047,3.279429 -1.165581,1.422403 -3.200407,1.422403 H 44.56745 q 0.67169,-0.553156 0.67169,-1.639714 V 12.260165 q 0,-1.145825 -0.67169,-1.639715 h 2.370672 q -0.67169,0.49389 -0.67169,1.639715 v 3.417719 q 0.05927,-0.07902 0.197556,-0.237067 0.968024,-1.047047 2.054582,-1.047047 1.876782,0 2.943584,1.580448 0.928514,1.382892 0.928514,3.378208 z m -6.124236,3.674541 v -5.709368 q 0,-0.829735 0.730957,-1.442159 0.691446,-0.553157 1.442159,-0.553157 1.086558,0 1.83727,0.711202 1.086558,1.007535 1.086558,3.239918 0,1.48167 -0.809979,2.587984 -0.889002,1.16558 -2.192872,1.16558 z"
         style="font-style:normal;font-variant:normal;font-weight:normal;font-stretch:normal;font-size:19.7556px;font-family:Monopol;-inkscape-font-specification:Monopol;fill:#973688;fill-opacity:1;stroke-width:0.264583"
         id="path857" />
      <path
         d="m 57.783936,24.27157 q -1.402647,0 -2.429938,-0.948269 -1.007536,-0.948269 -1.007536,-2.311405 0,-1.560692 1.007536,-2.489206 0.948268,-0.84949 2.410183,-0.84949 0.889002,0 1.442159,0.513645 0.553156,0.49389 0.553156,1.126069 0,0.217312 -0.05927,0.395112 0,-0.691446 -0.553157,-1.145824 -0.553157,-0.474135 -1.284114,-0.474135 -1.106314,0 -1.79776,0.790224 -0.691446,0.790224 -0.691446,2.054583 0,0.948268 0.711202,1.560692 0.730957,0.592668 1.817515,0.592668 1.027291,0 1.857026,-0.711202 0.829736,-0.711201 0.829736,-1.738492 v -3.793076 q 0,-0.67169 -0.553157,-1.066802 -0.553157,-0.395112 -1.30387,-0.395112 -1.936049,0 -3.417719,0.829735 -0.158044,0.07902 -0.513645,0.31609 l 1.580448,-2.252139 h 0.414867 q 0.237068,0.237068 0.533402,0.237068 0.296334,0 0.790224,-0.118534 0.513645,-0.138289 0.829735,-0.138289 1.679226,0 2.271894,0.98778 0.395112,0.691446 0.395112,2.232383 v 4.9389 q 0,1.086558 0.67169,1.639714 h -1.698981 v -1.363136 q -0.335846,0.533401 -1.066803,1.007536 -0.889002,0.572912 -1.738493,0.572912 z"
         style="font-style:normal;font-variant:normal;font-weight:normal;font-stretch:normal;font-size:19.7556px;font-family:Monopol;-inkscape-font-specification:Monopol;fill:#973688;fill-opacity:1;stroke-width:0.264583"
         id="path859" />
      <path
         d="m 65.784942,22.414544 q 0,1.086558 0.671691,1.639714 h -2.370672 q 0.67169,-0.553156 0.67169,-1.639714 v -6.499593 q 0,-1.145825 -0.67169,-1.639715 h 1.698981 v 1.363137 q 0.968025,-1.363137 2.449695,-1.363137 1.48167,0 2.508961,1.185336 0.968024,1.145825 0.968024,2.726273 0,1.501426 -1.303869,3.95112 -1.30387,2.449695 -1.30387,3.872098 0,0.553157 0.31609,1.007535 0.316089,0.454379 0.770468,0.454379 0.434623,0 0.790224,-0.237067 0.375357,-0.237067 0.375357,-0.592668 0.05927,0.454379 -0.197556,0.829735 -0.31609,0.414868 -0.928514,0.414868 -0.67169,0 -1.106313,-0.572913 -0.434623,-0.572912 -0.434623,-1.303869 0,-1.422403 0.908757,-3.852342 0.928513,-2.449695 0.928513,-4.010387 0,-1.106314 -0.67169,-1.916293 -0.67169,-0.829735 -1.698982,-0.829735 -0.908757,0 -1.639714,0.651934 -0.730958,0.63218 -0.730958,1.560693 z"
         style="font-style:normal;font-variant:normal;font-weight:normal;font-stretch:normal;font-size:19.7556px;font-family:Monopol;-inkscape-font-specification:Monopol;fill:#973688;fill-opacity:1;stroke-width:0.264583"
         id="path861" />
      <path
         d="m 77.91485,14.156703 q 1.896538,0 3.002851,1.501425 0.98778,1.343381 0.98778,3.239919 0,2.094093 -1.007535,3.516497 -1.145825,1.639714 -3.259674,1.639714 -1.857027,0 -2.923829,-1.461914 -0.98778,-1.323625 -0.98778,-3.338696 0,-2.015072 1.066802,-3.476986 1.165581,-1.619959 3.121385,-1.619959 z m 0.07902,1.047047 q -1.600203,0 -2.449694,1.264358 -0.790224,1.16558 -0.790224,3.121385 0,1.501425 0.829735,2.508961 0.829735,1.007536 2.074338,1.007536 1.698982,0 2.587984,-1.422404 0.750713,-1.16558 0.750713,-2.844806 0,-1.402648 -0.889002,-2.508961 -0.889002,-1.126069 -2.11385,-1.126069 z"
         style="font-style:normal;font-variant:normal;font-weight:normal;font-stretch:normal;font-size:19.7556px;font-family:Monopol;-inkscape-font-specification:Monopol;fill:#973688;fill-opacity:1;stroke-width:0.264583"
         id="path863" />
      <path
         d="m 92.04008,19.194381 q 0,-1.97556 -1.047047,-3.27943 -1.16558,-1.422403 -3.200407,-1.422403 h -3.575764 q 0.671691,0.553157 0.671691,1.639715 v 10.154378 q 0,1.145825 -0.671691,1.639715 h 2.370672 q -0.67169,-0.49389 -0.67169,-1.639715 v -3.417719 q 0.05927,0.07902 0.197556,0.237068 0.968024,1.047046 2.054582,1.047046 1.876782,0 2.943585,-1.580448 0.928513,-1.382892 0.928513,-3.378207 z m -6.124236,-3.674542 v 5.709369 q 0,0.829735 0.711201,1.422403 0.711202,0.572912 1.461915,0.572912 1.086558,0 1.837271,-0.711201 1.086558,-1.007536 1.086558,-3.239919 0,-1.48167 -0.80998,-2.587983 -0.889002,-1.165581 -2.192872,-1.165581 z"
         style="font-style:normal;font-variant:normal;font-weight:normal;font-stretch:normal;font-size:19.7556px;font-family:Monopol;-inkscape-font-specification:Monopol;fill:#973688;fill-opacity:1;stroke-width:0.264583"
         id="path865" />
      <path
         d="m 98.144552,14.156703 q 1.896538,0 3.002848,1.501425 0.98778,1.343381 0.98778,3.239919 0,2.094093 -1.00753,3.516497 -1.145827,1.639714 -3.259676,1.639714 -1.857027,0 -2.923829,-1.461914 -0.98778,-1.323625 -0.98778,-3.338696 0,-2.015072 1.066802,-3.476986 1.165581,-1.619959 3.121385,-1.619959 z m 0.07902,1.047047 q -1.600203,0 -2.449694,1.264358 -0.790224,1.16558 -0.790224,3.121385 0,1.501425 0.829735,2.508961 0.829735,1.007536 2.074338,1.007536 1.698982,0 2.587981,-1.422404 0.75072,-1.16558 0.75072,-2.844806 0,-1.402648 -0.88901,-2.508961 -0.888998,-1.126069 -2.113846,-1.126069 z"
         style="font-style:normal;font-variant:normal;font-weight:normal;font-stretch:normal;font-size:19.7556px;font-family:Monopol;-inkscape-font-specification:Monopol;fill:#973688;fill-opacity:1;stroke-width:0.264583"
         id="path867" />
      <path
         d="m 106.14555,22.414544 q 0,1.086558 0.67169,1.639714 h -2.37068 q 0.67169,-0.553156 0.67169,-1.639714 V 12.260165 q 0,-1.145825 -0.67169,-1.639715 h 1.69899 z"
         style="font-style:normal;font-variant:normal;font-weight:normal;font-stretch:normal;font-size:19.7556px;font-family:Monopol;-inkscape-font-specification:Monopol;fill:#973688;fill-opacity:1;stroke-width:0.264583"
         id="path869" />
      <path
         d="m 110.80783,22.414544 q 0,1.086558 0.67169,1.639714 h -2.37067 q 0.67169,-0.553156 0.67169,-1.639714 v -6.499593 q 0,-1.145825 -0.67169,-1.639715 h 2.37067 q -0.67169,0.49389 -0.67169,1.639715 z m -1.22485,-10.549491 q 0,-0.414867 0.15805,-0.730957 0.19755,-0.395112 0.55315,-0.395112 0.33585,0 0.53341,0.375356 0.1778,0.296334 0.1778,0.691446 0,0.414868 -0.1778,0.711202 -0.19756,0.355601 -0.53341,0.355601 -0.7112,-0.01976 -0.7112,-1.007536 z"
         style="font-style:normal;font-variant:normal;font-weight:normal;font-stretch:normal;font-size:19.7556px;font-family:Monopol;-inkscape-font-specification:Monopol;fill:#973688;fill-opacity:1;stroke-width:0.264583"
         id="path871" />
      <path
         d="m 114.46258,23.382568 q -0.21731,-0.01976 -0.73096,0.05927 l 0.86925,-1.343381 q 0.3556,-0.553157 0.57291,-1.047047 0.27658,-0.67169 0.33585,-0.770468 0.11853,0.355601 0.11853,0.691446 0,0.355601 0,0.711201 0.0198,0.553157 0.84949,0.98778 0.82974,0.434624 1.71874,0.434624 1.02729,0 1.79776,-0.395112 0.889,-0.454379 0.889,-1.244603 0,-0.80998 -0.86925,-1.343381 -0.5334,-0.31609 -1.81751,-0.67169 -0.84949,-0.217312 -1.69898,-0.434624 -1.02729,-0.276578 -1.54094,-0.67169 -0.67169,-0.513646 -0.69145,-1.343381 -0.0395,-1.284114 0.94827,-2.054582 0.98778,-0.790224 2.48921,-0.750713 1.08656,0.01976 1.9558,0.296334 0.86925,0.276578 1.36314,0.276578 0.25682,0 0.5334,-0.197556 0.27658,-0.217311 0.5334,-0.414867 -0.0395,0.276578 -1.0668,1.600203 l -0.7112,0.908758 q -0.0988,-0.256823 -0.37536,-0.572912 -0.82973,-0.98778 -2.35092,-0.98778 -0.82973,0 -1.44215,0.335845 -0.69145,0.375356 -0.71121,1.027291 -0.0198,0.80998 0.96803,1.30387 0.47413,0.217311 2.01507,0.651934 1.65947,0.454379 2.42994,0.928514 1.2446,0.770468 1.2446,1.97556 0,1.363136 -1.16558,2.192871 -1.14582,0.829735 -2.64725,0.711202 -0.77047,-0.05927 -1.97556,-0.434623 -1.20509,-0.375357 -1.83727,-0.414868 z"
         style="font-style:normal;font-variant:normal;font-weight:normal;font-stretch:normal;font-size:19.7556px;font-family:Monopol;-inkscape-font-specification:Monopol;fill:#973688;fill-opacity:1;stroke-width:0.264583"
         id="path873" />
    </g>
  </g>
</svg>
